<mxfile host="app.diagrams.net" modified="2022-06-18T15:25:59.491Z" agent="5.0 (Windows NT 10.0; Win64; x64) AppleWebKit/537.36 (KHTML, like Gecko) Chrome/101.0.4951.67 Safari/537.36 OPR/87.0.4390.58" etag="vlk2Ynj9QUiz-etLVN1i" version="15.8.6" type="github" pages="2">
  <diagram id="1giwEVVJZp0n7hsvWK0-" name="Page-1">
    <mxGraphModel dx="1381" dy="723" grid="1" gridSize="10" guides="1" tooltips="1" connect="1" arrows="1" fold="1" page="1" pageScale="1" pageWidth="850" pageHeight="1100" math="0" shadow="0">
      <root>
        <mxCell id="0" />
        <mxCell id="1" parent="0" />
        <mxCell id="y95NYt0zqhFRvmJoJn55-1" value="Jucator" style="rounded=1;whiteSpace=wrap;html=1;strokeWidth=2;" vertex="1" parent="1">
          <mxGeometry x="10" y="20" width="120" height="60" as="geometry" />
        </mxCell>
        <mxCell id="y95NYt0zqhFRvmJoJn55-3" value="Meniul principal" style="rounded=1;whiteSpace=wrap;html=1;strokeWidth=2;" vertex="1" parent="1">
          <mxGeometry x="190" y="20" width="120" height="60" as="geometry" />
        </mxCell>
        <mxCell id="y95NYt0zqhFRvmJoJn55-4" value="Actiune de joc" style="rounded=1;whiteSpace=wrap;html=1;strokeWidth=2;" vertex="1" parent="1">
          <mxGeometry x="360" y="20" width="120" height="60" as="geometry" />
        </mxCell>
        <mxCell id="y95NYt0zqhFRvmJoJn55-6" value="Meniu pauza joc" style="rounded=1;whiteSpace=wrap;html=1;strokeWidth=2;" vertex="1" parent="1">
          <mxGeometry x="540" y="20" width="120" height="60" as="geometry" />
        </mxCell>
        <mxCell id="y95NYt0zqhFRvmJoJn55-7" value="" style="endArrow=none;dashed=1;html=1;rounded=0;entryX=0.5;entryY=1;entryDx=0;entryDy=0;" edge="1" parent="1" target="y95NYt0zqhFRvmJoJn55-1">
          <mxGeometry width="50" height="50" relative="1" as="geometry">
            <mxPoint x="70" y="410" as="sourcePoint" />
            <mxPoint x="450" y="150" as="targetPoint" />
          </mxGeometry>
        </mxCell>
        <mxCell id="y95NYt0zqhFRvmJoJn55-8" value="" style="endArrow=none;dashed=1;html=1;rounded=0;entryX=0.5;entryY=1;entryDx=0;entryDy=0;" edge="1" parent="1" target="y95NYt0zqhFRvmJoJn55-3">
          <mxGeometry width="50" height="50" relative="1" as="geometry">
            <mxPoint x="250" y="400" as="sourcePoint" />
            <mxPoint x="80" y="90" as="targetPoint" />
          </mxGeometry>
        </mxCell>
        <mxCell id="y95NYt0zqhFRvmJoJn55-9" value="" style="endArrow=none;dashed=1;html=1;rounded=0;entryX=0.5;entryY=1;entryDx=0;entryDy=0;" edge="1" parent="1" target="y95NYt0zqhFRvmJoJn55-4">
          <mxGeometry width="50" height="50" relative="1" as="geometry">
            <mxPoint x="420" y="400" as="sourcePoint" />
            <mxPoint x="90" y="100" as="targetPoint" />
          </mxGeometry>
        </mxCell>
        <mxCell id="y95NYt0zqhFRvmJoJn55-10" value="" style="endArrow=none;dashed=1;html=1;rounded=0;entryX=0.567;entryY=1;entryDx=0;entryDy=0;entryPerimeter=0;" edge="1" parent="1" target="y95NYt0zqhFRvmJoJn55-6">
          <mxGeometry width="50" height="50" relative="1" as="geometry">
            <mxPoint x="608" y="400" as="sourcePoint" />
            <mxPoint x="100" y="110" as="targetPoint" />
          </mxGeometry>
        </mxCell>
        <mxCell id="y95NYt0zqhFRvmJoJn55-11" value="" style="endArrow=classic;html=1;rounded=0;" edge="1" parent="1">
          <mxGeometry width="50" height="50" relative="1" as="geometry">
            <mxPoint x="70" y="160" as="sourcePoint" />
            <mxPoint x="250" y="160" as="targetPoint" />
          </mxGeometry>
        </mxCell>
        <mxCell id="y95NYt0zqhFRvmJoJn55-12" value="Porneste jocul" style="edgeLabel;html=1;align=center;verticalAlign=middle;resizable=0;points=[];" vertex="1" connectable="0" parent="y95NYt0zqhFRvmJoJn55-11">
          <mxGeometry x="0.1778" y="-1" relative="1" as="geometry">
            <mxPoint as="offset" />
          </mxGeometry>
        </mxCell>
        <mxCell id="y95NYt0zqhFRvmJoJn55-13" value="" style="endArrow=classic;html=1;rounded=0;" edge="1" parent="1">
          <mxGeometry width="50" height="50" relative="1" as="geometry">
            <mxPoint x="250" y="280" as="sourcePoint" />
            <mxPoint x="70" y="280" as="targetPoint" />
          </mxGeometry>
        </mxCell>
        <mxCell id="y95NYt0zqhFRvmJoJn55-14" value="Inchide jocul" style="edgeLabel;html=1;align=center;verticalAlign=middle;resizable=0;points=[];" vertex="1" connectable="0" parent="y95NYt0zqhFRvmJoJn55-13">
          <mxGeometry x="-0.1778" y="3" relative="1" as="geometry">
            <mxPoint as="offset" />
          </mxGeometry>
        </mxCell>
        <mxCell id="y95NYt0zqhFRvmJoJn55-15" value="" style="endArrow=classic;html=1;rounded=0;" edge="1" parent="1">
          <mxGeometry width="50" height="50" relative="1" as="geometry">
            <mxPoint x="250" y="210" as="sourcePoint" />
            <mxPoint x="420" y="210" as="targetPoint" />
          </mxGeometry>
        </mxCell>
        <mxCell id="y95NYt0zqhFRvmJoJn55-16" value="Start Joc" style="edgeLabel;html=1;align=center;verticalAlign=middle;resizable=0;points=[];" vertex="1" connectable="0" parent="y95NYt0zqhFRvmJoJn55-15">
          <mxGeometry x="-0.2824" y="-5" relative="1" as="geometry">
            <mxPoint as="offset" />
          </mxGeometry>
        </mxCell>
        <mxCell id="y95NYt0zqhFRvmJoJn55-17" value="" style="endArrow=classic;html=1;rounded=0;" edge="1" parent="1">
          <mxGeometry width="50" height="50" relative="1" as="geometry">
            <mxPoint x="420" y="240" as="sourcePoint" />
            <mxPoint x="610" y="240" as="targetPoint" />
          </mxGeometry>
        </mxCell>
        <mxCell id="y95NYt0zqhFRvmJoJn55-18" value="Sfarsit joc" style="edgeLabel;html=1;align=center;verticalAlign=middle;resizable=0;points=[];" vertex="1" connectable="0" parent="y95NYt0zqhFRvmJoJn55-17">
          <mxGeometry x="0.2632" y="4" relative="1" as="geometry">
            <mxPoint as="offset" />
          </mxGeometry>
        </mxCell>
        <mxCell id="y95NYt0zqhFRvmJoJn55-19" value="" style="endArrow=classic;html=1;rounded=0;" edge="1" parent="1">
          <mxGeometry width="50" height="50" relative="1" as="geometry">
            <mxPoint x="610" y="270" as="sourcePoint" />
            <mxPoint x="250" y="270" as="targetPoint" />
          </mxGeometry>
        </mxCell>
        <mxCell id="y95NYt0zqhFRvmJoJn55-20" value="Restart joc" style="edgeLabel;html=1;align=center;verticalAlign=middle;resizable=0;points=[];" vertex="1" connectable="0" parent="y95NYt0zqhFRvmJoJn55-19">
          <mxGeometry x="0.2" y="1" relative="1" as="geometry">
            <mxPoint as="offset" />
          </mxGeometry>
        </mxCell>
        <mxCell id="y95NYt0zqhFRvmJoJn55-21" value="" style="endArrow=classic;html=1;rounded=0;" edge="1" parent="1">
          <mxGeometry width="50" height="50" relative="1" as="geometry">
            <mxPoint x="610" y="360" as="sourcePoint" />
            <mxPoint x="70" y="360" as="targetPoint" />
          </mxGeometry>
        </mxCell>
        <mxCell id="y95NYt0zqhFRvmJoJn55-22" value="Oprire joc" style="edgeLabel;html=1;align=center;verticalAlign=middle;resizable=0;points=[];" vertex="1" connectable="0" parent="y95NYt0zqhFRvmJoJn55-21">
          <mxGeometry x="-0.1296" y="3" relative="1" as="geometry">
            <mxPoint as="offset" />
          </mxGeometry>
        </mxCell>
      </root>
    </mxGraphModel>
  </diagram>
  <diagram id="F18ezLF6bXXvESpYkP5N" name="Page-2">
    <mxGraphModel dx="1381" dy="723" grid="1" gridSize="10" guides="1" tooltips="1" connect="1" arrows="1" fold="1" page="1" pageScale="1" pageWidth="850" pageHeight="1100" math="0" shadow="0">
      <root>
        <mxCell id="Bc_A3RVidk0AGZeE9pqv-0" />
        <mxCell id="Bc_A3RVidk0AGZeE9pqv-1" parent="Bc_A3RVidk0AGZeE9pqv-0" />
        <mxCell id="Bc_A3RVidk0AGZeE9pqv-2" value="Jucator" style="shape=umlActor;verticalLabelPosition=bottom;verticalAlign=top;html=1;outlineConnect=0;strokeWidth=2;" vertex="1" parent="Bc_A3RVidk0AGZeE9pqv-1">
          <mxGeometry x="30" y="340" width="60" height="110" as="geometry" />
        </mxCell>
        <mxCell id="Bc_A3RVidk0AGZeE9pqv-3" value="Joc cu camera cu perspectiva adaptiva" style="swimlane;strokeWidth=2;" vertex="1" parent="Bc_A3RVidk0AGZeE9pqv-1">
          <mxGeometry x="160" y="160" width="680" height="390" as="geometry" />
        </mxCell>
        <mxCell id="Bc_A3RVidk0AGZeE9pqv-4" value="Porneste aplicatia" style="ellipse;whiteSpace=wrap;html=1;strokeWidth=2;" vertex="1" parent="Bc_A3RVidk0AGZeE9pqv-3">
          <mxGeometry x="30" y="40" width="120" height="80" as="geometry" />
        </mxCell>
        <mxCell id="Bc_A3RVidk0AGZeE9pqv-5" value="Opreste aplicatia" style="ellipse;whiteSpace=wrap;html=1;strokeWidth=2;" vertex="1" parent="Bc_A3RVidk0AGZeE9pqv-3">
          <mxGeometry x="30" y="300" width="120" height="80" as="geometry" />
        </mxCell>
        <mxCell id="Bc_A3RVidk0AGZeE9pqv-17" value="" style="edgeStyle=orthogonalEdgeStyle;rounded=0;orthogonalLoop=1;jettySize=auto;html=1;" edge="1" parent="Bc_A3RVidk0AGZeE9pqv-3" source="Bc_A3RVidk0AGZeE9pqv-6" target="Bc_A3RVidk0AGZeE9pqv-16">
          <mxGeometry relative="1" as="geometry" />
        </mxCell>
        <mxCell id="Bc_A3RVidk0AGZeE9pqv-6" value="Incepe jocul" style="ellipse;whiteSpace=wrap;html=1;strokeWidth=2;" vertex="1" parent="Bc_A3RVidk0AGZeE9pqv-3">
          <mxGeometry x="30" y="170" width="120" height="80" as="geometry" />
        </mxCell>
        <mxCell id="Bc_A3RVidk0AGZeE9pqv-10" value="Apasa &quot;Escape&quot;" style="ellipse;whiteSpace=wrap;html=1;strokeWidth=2;" vertex="1" parent="Bc_A3RVidk0AGZeE9pqv-3">
          <mxGeometry x="250" y="250" width="120" height="80" as="geometry" />
        </mxCell>
        <mxCell id="Bc_A3RVidk0AGZeE9pqv-14" value="" style="endArrow=classic;startArrow=classic;html=1;rounded=0;exitX=0;exitY=0.5;exitDx=0;exitDy=0;entryX=0.583;entryY=1.038;entryDx=0;entryDy=0;entryPerimeter=0;" edge="1" parent="Bc_A3RVidk0AGZeE9pqv-3" source="Bc_A3RVidk0AGZeE9pqv-10" target="Bc_A3RVidk0AGZeE9pqv-6">
          <mxGeometry width="50" height="50" relative="1" as="geometry">
            <mxPoint x="250" y="250" as="sourcePoint" />
            <mxPoint x="300" y="200" as="targetPoint" />
          </mxGeometry>
        </mxCell>
        <mxCell id="Bc_A3RVidk0AGZeE9pqv-19" value="" style="edgeStyle=orthogonalEdgeStyle;rounded=0;orthogonalLoop=1;jettySize=auto;html=1;" edge="1" parent="Bc_A3RVidk0AGZeE9pqv-3" source="Bc_A3RVidk0AGZeE9pqv-16" target="Bc_A3RVidk0AGZeE9pqv-18">
          <mxGeometry relative="1" as="geometry" />
        </mxCell>
        <mxCell id="Bc_A3RVidk0AGZeE9pqv-16" value="Controleaza personajul" style="ellipse;whiteSpace=wrap;html=1;strokeWidth=2;" vertex="1" parent="Bc_A3RVidk0AGZeE9pqv-3">
          <mxGeometry x="200" y="155" width="120" height="80" as="geometry" />
        </mxCell>
        <mxCell id="Bc_A3RVidk0AGZeE9pqv-21" value="" style="edgeStyle=orthogonalEdgeStyle;rounded=0;orthogonalLoop=1;jettySize=auto;html=1;" edge="1" parent="Bc_A3RVidk0AGZeE9pqv-3" source="Bc_A3RVidk0AGZeE9pqv-18" target="Bc_A3RVidk0AGZeE9pqv-20">
          <mxGeometry relative="1" as="geometry" />
        </mxCell>
        <mxCell id="Bc_A3RVidk0AGZeE9pqv-25" style="edgeStyle=orthogonalEdgeStyle;rounded=0;orthogonalLoop=1;jettySize=auto;html=1;exitX=0.5;exitY=1;exitDx=0;exitDy=0;entryX=0.933;entryY=0.263;entryDx=0;entryDy=0;entryPerimeter=0;" edge="1" parent="Bc_A3RVidk0AGZeE9pqv-3" source="Bc_A3RVidk0AGZeE9pqv-18" target="Bc_A3RVidk0AGZeE9pqv-10">
          <mxGeometry relative="1" as="geometry" />
        </mxCell>
        <mxCell id="Bc_A3RVidk0AGZeE9pqv-18" value="Interactioneaza cu zonele din joc" style="ellipse;whiteSpace=wrap;html=1;strokeWidth=2;" vertex="1" parent="Bc_A3RVidk0AGZeE9pqv-3">
          <mxGeometry x="380" y="150" width="120" height="80" as="geometry" />
        </mxCell>
        <mxCell id="Bc_A3RVidk0AGZeE9pqv-22" style="edgeStyle=orthogonalEdgeStyle;rounded=0;orthogonalLoop=1;jettySize=auto;html=1;entryX=0.833;entryY=0.25;entryDx=0;entryDy=0;entryPerimeter=0;" edge="1" parent="Bc_A3RVidk0AGZeE9pqv-3" source="Bc_A3RVidk0AGZeE9pqv-20" target="Bc_A3RVidk0AGZeE9pqv-6">
          <mxGeometry relative="1" as="geometry">
            <Array as="points">
              <mxPoint x="130" y="120" />
            </Array>
          </mxGeometry>
        </mxCell>
        <mxCell id="Bc_A3RVidk0AGZeE9pqv-20" value="Cade de pe harta" style="ellipse;whiteSpace=wrap;html=1;strokeWidth=2;" vertex="1" parent="Bc_A3RVidk0AGZeE9pqv-3">
          <mxGeometry x="380" y="40" width="120" height="80" as="geometry" />
        </mxCell>
        <mxCell id="Bc_A3RVidk0AGZeE9pqv-11" value="Iese din joc" style="ellipse;whiteSpace=wrap;html=1;strokeWidth=2;" vertex="1" parent="Bc_A3RVidk0AGZeE9pqv-3">
          <mxGeometry x="520" y="270" width="120" height="80" as="geometry" />
        </mxCell>
        <mxCell id="Bc_A3RVidk0AGZeE9pqv-12" value="" style="edgeStyle=orthogonalEdgeStyle;rounded=0;orthogonalLoop=1;jettySize=auto;html=1;" edge="1" parent="Bc_A3RVidk0AGZeE9pqv-3" source="Bc_A3RVidk0AGZeE9pqv-10" target="Bc_A3RVidk0AGZeE9pqv-11">
          <mxGeometry relative="1" as="geometry" />
        </mxCell>
        <mxCell id="Bc_A3RVidk0AGZeE9pqv-13" value="" style="endArrow=classic;html=1;rounded=0;entryX=0.983;entryY=0.663;entryDx=0;entryDy=0;entryPerimeter=0;exitX=0.5;exitY=1;exitDx=0;exitDy=0;" edge="1" parent="Bc_A3RVidk0AGZeE9pqv-3" source="Bc_A3RVidk0AGZeE9pqv-11" target="Bc_A3RVidk0AGZeE9pqv-5">
          <mxGeometry width="50" height="50" relative="1" as="geometry">
            <mxPoint x="315" y="380" as="sourcePoint" />
            <mxPoint x="365" y="330" as="targetPoint" />
          </mxGeometry>
        </mxCell>
        <mxCell id="Bc_A3RVidk0AGZeE9pqv-7" value="" style="endArrow=classic;html=1;rounded=0;" edge="1" parent="Bc_A3RVidk0AGZeE9pqv-1" source="Bc_A3RVidk0AGZeE9pqv-2" target="Bc_A3RVidk0AGZeE9pqv-4">
          <mxGeometry width="50" height="50" relative="1" as="geometry">
            <mxPoint x="400" y="400" as="sourcePoint" />
            <mxPoint x="450" y="350" as="targetPoint" />
          </mxGeometry>
        </mxCell>
        <mxCell id="Bc_A3RVidk0AGZeE9pqv-8" value="" style="endArrow=classic;html=1;rounded=0;entryX=0;entryY=0.5;entryDx=0;entryDy=0;" edge="1" parent="Bc_A3RVidk0AGZeE9pqv-1" source="Bc_A3RVidk0AGZeE9pqv-2" target="Bc_A3RVidk0AGZeE9pqv-6">
          <mxGeometry width="50" height="50" relative="1" as="geometry">
            <mxPoint x="400" y="400" as="sourcePoint" />
            <mxPoint x="450" y="350" as="targetPoint" />
          </mxGeometry>
        </mxCell>
        <mxCell id="Bc_A3RVidk0AGZeE9pqv-9" value="" style="endArrow=classic;html=1;rounded=0;" edge="1" parent="Bc_A3RVidk0AGZeE9pqv-1" source="Bc_A3RVidk0AGZeE9pqv-2" target="Bc_A3RVidk0AGZeE9pqv-5">
          <mxGeometry width="50" height="50" relative="1" as="geometry">
            <mxPoint x="400" y="400" as="sourcePoint" />
            <mxPoint x="450" y="350" as="targetPoint" />
          </mxGeometry>
        </mxCell>
      </root>
    </mxGraphModel>
  </diagram>
</mxfile>
